<svg width="32" height="32" viewBox="0 0 32 32" fill="none" xmlns="http://www.w3.org/2000/svg">
<path d="M22.6666 15.4445H16.5555V9.33339C16.5555 9.18605 16.497 9.04474 16.3928 8.94055C16.2886 8.83636 16.1473 8.77783 15.9999 8.77783C15.8526 8.77783 15.7113 8.83636 15.6071 8.94055C15.5029 9.04474 15.4444 9.18605 15.4444 9.33339V15.4445H9.33326C9.18592 15.4445 9.04461 15.503 8.94043 15.6072C8.83624 15.7114 8.77771 15.8527 8.77771 16.0001C8.77497 16.0723 8.78773 16.1442 8.81515 16.2111C8.84257 16.2779 8.88399 16.3381 8.93664 16.3876C8.98929 16.4371 9.05193 16.4747 9.12035 16.4979C9.18877 16.5212 9.26137 16.5295 9.33326 16.5223H15.4444V22.6667C15.4444 22.8141 15.5029 22.9554 15.6071 23.0596C15.7113 23.1637 15.8526 23.2223 15.9999 23.2223C16.1473 23.2223 16.2886 23.1637 16.3928 23.0596C16.497 22.9554 16.5555 22.8141 16.5555 22.6667V16.5556H22.6666C22.8139 16.5556 22.9552 16.4971 23.0594 16.3929C23.1636 16.2887 23.2222 16.1474 23.2222 16.0001C23.2222 15.8527 23.1636 15.7114 23.0594 15.6072C22.9552 15.503 22.8139 15.4445 22.6666 15.4445Z" fill="#514A7E"/>
</svg>
