<svg width="28" height="32" viewBox="0 0 28 32" fill="none" xmlns="http://www.w3.org/2000/svg">
<path d="M20.6117 10.3333V7.54715C20.6117 6.67896 20.4407 5.81928 20.1084 5.01718C19.7762 4.21509 19.2892 3.48628 18.6753 2.87238C18.0614 2.25849 17.3326 1.77152 16.5305 1.43928C15.7284 1.10704 14.8687 0.936035 14.0005 0.936035C13.1324 0.936035 12.2727 1.10704 11.4706 1.43928C10.6685 1.77152 9.93968 2.25849 9.32578 2.87238C8.71188 3.48628 8.22491 4.21509 7.89267 5.01718C7.56043 5.81928 7.38943 6.67896 7.38943 7.54715V14.1583C7.38943 14.4087 7.48893 14.649 7.66605 14.8261C7.84317 15.0032 8.08339 15.1027 8.33388 15.1027C8.58436 15.1027 8.82458 15.0032 9.0017 14.8261C9.17882 14.649 9.27832 14.4087 9.27832 14.1583V12.2221H16.8339V10.3333H9.27832V7.54715C9.27832 6.29473 9.77584 5.09362 10.6614 4.20803C11.547 3.32244 12.7481 2.82492 14.0005 2.82492C15.253 2.82492 16.4541 3.32244 17.3397 4.20803C18.2252 5.09362 18.7228 6.29473 18.7228 7.54715V14.111C18.7228 14.3615 18.8223 14.6017 18.9994 14.7789C19.1765 14.956 19.4167 15.0555 19.6672 15.0555C19.9177 15.0555 20.1579 14.956 20.335 14.7789C20.5121 14.6017 20.6117 14.3615 20.6117 14.111V12.2221H25.3339V29.2221H2.66721V12.2221H5.50054V10.3333H0.77832V29.3071C0.77832 29.7856 0.968372 30.2444 1.30667 30.5827C1.64496 30.921 2.10379 31.111 2.58221 31.111H25.4189C25.8973 31.111 26.3561 30.921 26.6944 30.5827C27.0327 30.2444 27.2228 29.7856 27.2228 29.3071V10.3333H20.6117Z" fill="#121212"/>
</svg>
