<svg width="30" height="30" viewBox="0 0 30 30" fill="none" xmlns="http://www.w3.org/2000/svg">
<path d="M12.4062 15.1875H18.0234V16H11.4375V4.625H12.4062V15.1875Z" fill="#514A7E"/>
<path d="M13.4062 25.168H14.293V25.5625H13.4062V27H12.9375V25.5625H10.2617V25.2969L12.8945 21.3125H13.4062V25.168ZM10.8359 25.168H12.9375V21.918L12.7305 22.2773L10.8359 25.168ZM17.7305 21.2695V21.6797H17.6758C16.9961 21.6797 16.4609 21.8802 16.0703 22.2812C15.6797 22.6797 15.4635 23.2344 15.4219 23.9453C15.5781 23.7292 15.7773 23.5625 16.0195 23.4453C16.2617 23.3255 16.5326 23.2656 16.832 23.2656C17.332 23.2656 17.7292 23.4388 18.0234 23.7852C18.3203 24.1289 18.4688 24.5794 18.4688 25.1367C18.4688 25.5065 18.3997 25.8398 18.2617 26.1367C18.1237 26.4336 17.9258 26.6654 17.668 26.832C17.4102 26.9961 17.1159 27.0781 16.7852 27.0781C16.2409 27.0781 15.7982 26.8815 15.457 26.4883C15.1159 26.0924 14.9453 25.582 14.9453 24.957V24.4883C14.9453 23.4701 15.1771 22.6823 15.6406 22.125C16.1042 21.5651 16.7617 21.2799 17.6133 21.2695H17.7305ZM16.7578 23.668C16.4609 23.668 16.1836 23.7565 15.9258 23.9336C15.6706 24.1081 15.5 24.3307 15.4141 24.6016V25C15.4141 25.4948 15.5404 25.8984 15.793 26.2109C16.0482 26.5234 16.3789 26.6797 16.7852 26.6797C17.1497 26.6797 17.444 26.5352 17.668 26.2461C17.8945 25.957 18.0078 25.5924 18.0078 25.1523C18.0078 24.7044 17.8945 24.3451 17.668 24.0742C17.444 23.8034 17.1406 23.668 16.7578 23.668Z" fill="#7D7D7D"/>
<rect x="0.15" y="0.15" width="29.7" height="29.7" stroke="#514A7E" stroke-width="0.3"/>
</svg>
