<svg width="30" height="30" viewBox="0 0 30 30" fill="none" xmlns="http://www.w3.org/2000/svg">
<path d="M10.7109 4.625L14.9062 14.6641L19.1172 4.625H20.3984V16H19.4375V11.0469L19.5156 5.96875L15.2812 16H14.5391L10.3203 6.00781L10.3984 11.0156V16H9.4375V4.625H10.7109Z" fill="#514A7E"/>
<path d="M13.4062 25.168H14.293V25.5625H13.4062V27H12.9375V25.5625H10.2617V25.2969L12.8945 21.3125H13.4062V25.168ZM10.8359 25.168H12.9375V21.918L12.7305 22.2773L10.8359 25.168ZM17.8438 25.168H18.7305V25.5625H17.8438V27H17.375V25.5625H14.6992V25.2969L17.332 21.3125H17.8438V25.168ZM15.2734 25.168H17.375V21.918L17.168 22.2773L15.2734 25.168Z" fill="#7D7D7D"/>
<rect x="0.15" y="0.15" width="29.7" height="29.7" stroke="#514A7E" stroke-width="0.3"/>
</svg>
