<svg width="63" height="63" viewBox="0 0 63 63" fill="none" xmlns="http://www.w3.org/2000/svg">
<g filter="url(#filter0_d_81_2613)">
<circle cx="31.5" cy="27.5" r="21.5" transform="rotate(-90 31.5 27.5)" fill="#514A7E"/>
<path d="M22.6464 27.6464C22.4512 27.8417 22.4512 28.1583 22.6464 28.3536L25.8284 31.5355C26.0237 31.7308 26.3403 31.7308 26.5355 31.5355C26.7308 31.3403 26.7308 31.0237 26.5355 30.8284L23.7071 28L26.5355 25.1716C26.7308 24.9763 26.7308 24.6597 26.5355 24.4645C26.3403 24.2692 26.0237 24.2692 25.8284 24.4645L22.6464 27.6464ZM40 27.5L23 27.5L23 28.5L40 28.5L40 27.5Z" fill="#FFFDF5"/>
</g>
<defs>
<filter id="filter0_d_81_2613" x="0" y="0" width="63" height="63" filterUnits="userSpaceOnUse" color-interpolation-filters="sRGB">
<feFlood flood-opacity="0" result="BackgroundImageFix"/>
<feColorMatrix in="SourceAlpha" type="matrix" values="0 0 0 0 0 0 0 0 0 0 0 0 0 0 0 0 0 0 127 0" result="hardAlpha"/>
<feOffset dy="4"/>
<feGaussianBlur stdDeviation="5"/>
<feComposite in2="hardAlpha" operator="out"/>
<feColorMatrix type="matrix" values="0 0 0 0 0.31816 0 0 0 0 0.289236 0 0 0 0 0.495833 0 0 0 0.4 0"/>
<feBlend mode="normal" in2="BackgroundImageFix" result="effect1_dropShadow_81_2613"/>
<feBlend mode="normal" in="SourceGraphic" in2="effect1_dropShadow_81_2613" result="shape"/>
</filter>
</defs>
</svg>
