<svg width="30" height="30" viewBox="0 0 30 30" fill="none" xmlns="http://www.w3.org/2000/svg">
<path d="M17.875 13.2031C17.875 12.5729 17.6536 12.0755 17.2109 11.7109C16.7682 11.3411 15.9583 10.9922 14.7812 10.6641C13.6042 10.3307 12.7448 9.96875 12.2031 9.57812C11.4323 9.02604 11.0469 8.30208 11.0469 7.40625C11.0469 6.53646 11.4036 5.83073 12.1172 5.28906C12.8359 4.74219 13.7526 4.46875 14.8672 4.46875C15.6224 4.46875 16.2969 4.61458 16.8906 4.90625C17.4896 5.19792 17.9531 5.60417 18.2812 6.125C18.6094 6.64583 18.7734 7.22656 18.7734 7.86719H17.8047C17.8047 7.09115 17.5391 6.46875 17.0078 6C16.4766 5.52604 15.763 5.28906 14.8672 5.28906C13.9974 5.28906 13.3047 5.48438 12.7891 5.875C12.2734 6.26042 12.0156 6.76562 12.0156 7.39062C12.0156 7.96875 12.2474 8.4401 12.7109 8.80469C13.1745 9.16927 13.9167 9.49219 14.9375 9.77344C15.9583 10.0495 16.7318 10.3385 17.2578 10.6406C17.7839 10.9375 18.1797 11.2943 18.4453 11.7109C18.7109 12.1276 18.8438 12.6198 18.8438 13.1875C18.8438 14.0833 18.4844 14.8021 17.7656 15.3438C17.0521 15.8854 16.1094 16.1562 14.9375 16.1562C14.1354 16.1562 13.3984 16.013 12.7266 15.7266C12.0599 15.4401 11.5521 15.0391 11.2031 14.5234C10.8594 14.0078 10.6875 13.4167 10.6875 12.75H11.6484C11.6484 13.5521 11.9479 14.1849 12.5469 14.6484C13.1458 15.112 13.9427 15.3438 14.9375 15.3438C15.8229 15.3438 16.5339 15.1484 17.0703 14.7578C17.6068 14.3672 17.875 13.849 17.875 13.2031Z" fill="#514A7E"/>
<path d="M13.4062 25.168H14.293V25.5625H13.4062V27H12.9375V25.5625H10.2617V25.2969L12.8945 21.3125H13.4062V25.168ZM10.8359 25.168H12.9375V21.918L12.7305 22.2773L10.8359 25.168ZM18.5352 27H14.9727V26.6406L16.9219 24.4297C17.2448 24.0573 17.4688 23.75 17.5938 23.5078C17.7188 23.2656 17.7812 23.0299 17.7812 22.8008C17.7812 22.4414 17.6758 22.1576 17.4648 21.9492C17.2539 21.7383 16.9635 21.6328 16.5938 21.6328C16.2109 21.6328 15.901 21.7552 15.6641 22C15.4297 22.2448 15.3125 22.5625 15.3125 22.9531H14.8477C14.8477 22.6328 14.9193 22.3411 15.0625 22.0781C15.2083 21.8151 15.4141 21.6094 15.6797 21.4609C15.9479 21.3099 16.2526 21.2344 16.5938 21.2344C17.1146 21.2344 17.5208 21.3711 17.8125 21.6445C18.1068 21.918 18.2539 22.2904 18.2539 22.7617C18.2539 23.0273 18.1706 23.3177 18.0039 23.6328C17.8398 23.9479 17.5495 24.3411 17.1328 24.8125L15.5469 26.6055H18.5352V27Z" fill="#7D7D7D"/>
<rect x="0.15" y="0.15" width="29.7" height="29.7" stroke="#514A7E" stroke-width="0.3"/>
</svg>
