<svg width="30" height="30" viewBox="0 0 30 30" fill="none" xmlns="http://www.w3.org/2000/svg">
<path d="M10.8984 9.4375L14.1016 4.625H15.25L11.4844 10.2344L15.3672 16H14.2109L10.8984 11.0312L7.57031 16H6.42969L10.3203 10.2344L6.54688 4.625H7.69531L10.8984 9.4375ZM18.2031 15.1875H23.8203V16H17.2344V4.625H18.2031V15.1875Z" fill="#514A7E"/>
<path d="M14.4062 25.168H15.293V25.5625H14.4062V27H13.9375V25.5625H11.2617V25.2969L13.8945 21.3125H14.4062V25.168ZM11.8359 25.168H13.9375V21.918L13.7305 22.2773L11.8359 25.168ZM19.3242 22.7773C19.3242 23.0716 19.2383 23.3359 19.0664 23.5703C18.8945 23.8021 18.668 23.9727 18.3867 24.082C18.7148 24.194 18.9779 24.375 19.1758 24.625C19.3737 24.875 19.4727 25.1641 19.4727 25.4922C19.4727 25.9792 19.3073 26.3659 18.9766 26.6523C18.6458 26.9362 18.2083 27.0781 17.6641 27.0781C17.1146 27.0781 16.6745 26.9362 16.3438 26.6523C16.0156 26.3685 15.8516 25.9818 15.8516 25.4922C15.8516 25.1693 15.9466 24.8815 16.1367 24.6289C16.3268 24.3763 16.5872 24.194 16.918 24.082C16.6367 23.9727 16.4128 23.8021 16.2461 23.5703C16.0794 23.3359 15.9961 23.0716 15.9961 22.7773C15.9961 22.306 16.1471 21.931 16.4492 21.6523C16.7539 21.3737 17.1562 21.2344 17.6562 21.2344C18.1562 21.2344 18.5586 21.375 18.8633 21.6562C19.1706 21.9375 19.3242 22.3112 19.3242 22.7773ZM19.0039 25.4961C19.0039 25.1419 18.8776 24.8516 18.625 24.625C18.3724 24.3958 18.0495 24.2812 17.6562 24.2812C17.263 24.2812 16.9414 24.3932 16.6914 24.6172C16.4414 24.8411 16.3164 25.1341 16.3164 25.4961C16.3164 25.8581 16.4375 26.1471 16.6797 26.3633C16.9219 26.5768 17.25 26.6836 17.6641 26.6836C18.0677 26.6836 18.3919 26.5768 18.6367 26.3633C18.8815 26.1497 19.0039 25.8607 19.0039 25.4961ZM18.8555 22.7734C18.8555 22.4479 18.7422 22.1771 18.5156 21.9609C18.2917 21.7422 18.0052 21.6328 17.6562 21.6328C17.3021 21.6328 17.0143 21.7383 16.793 21.9492C16.5742 22.1576 16.4648 22.4323 16.4648 22.7734C16.4648 23.1068 16.5742 23.375 16.793 23.5781C17.0143 23.7812 17.3034 23.8828 17.6602 23.8828C18.0117 23.8828 18.2982 23.7812 18.5195 23.5781C18.7435 23.3724 18.8555 23.1042 18.8555 22.7734Z" fill="#7D7D7D"/>
<rect x="0.15" y="0.15" width="29.7" height="29.7" stroke="#514A7E" stroke-width="0.3"/>
</svg>
